<svg id="mask" xmlns="http://www.w3.org/2000/svg" viewBox="0 0 681.88 187.38">
  <defs>
    <style>
      .cls-1 {
        fill: none;
      }
    </style>
  </defs>
  <title>mask</title>
  <g>
    <g>
      <path class="cls-1" d="M514.8,482.27a2.7,2.7,0,0,0-2-.84h-41V463.26H510.1a2.56,2.56,0,0,0,2-.8,2.89,2.89,0,0,0,.72-2V452a2.94,2.94,0,0,0-.8-2.17,2.64,2.64,0,0,0-1.93-.8H471.83V431.1h39.24a2.63,2.63,0,0,0,1.93-.8,2.94,2.94,0,0,0,.8-2.17v-8.44a2.89,2.89,0,0,0-.72-2,2.57,2.57,0,0,0-2-.8H460.73a2.49,2.49,0,0,0-2.81,2.81v29.67h-4.83a3.47,3.47,0,0,0-2.49,1,3.67,3.67,0,0,0-1,2.77v6.59a3.55,3.55,0,0,0,1,2.49,3.33,3.33,0,0,0,2.57,1h4.83v29.67q0,2.74,2.25,2.81h52.66a2.7,2.7,0,0,0,2.05-.8,2.8,2.8,0,0,0,.76-2v-8.44A3,3,0,0,0,514.8,482.27Z" transform="translate(-129.12 -308.36)"/>
      <path class="cls-1" d="M132.09,495.24q-3,0-3-2a7.68,7.68,0,0,1,.08-1.45,2.49,2.49,0,0,1,.16-.48l33-74.93a9.9,9.9,0,0,1,.88-1.41q.56-.76,2.57-.76h.56a4.52,4.52,0,0,1,1.77.28,2.5,2.5,0,0,1,1,.68,2.35,2.35,0,0,1,.44.84,2.37,2.37,0,0,0,.28.68q4,9.33,7,15.92t5.35,11.74q2.41,5.15,4.54,9.61t4.5,9.61q2.37,5.15,5.23,11.74t6.71,16l-.08-.08.16.8q.08.4.16.72a2.28,2.28,0,0,1,.08.48q0,2-2.89,2Zm16.64-14.15h35.06l-17.85-41Z" transform="translate(-129.12 -308.36)"/>
      <path class="cls-1" d="M303.83,491.54a3,3,0,0,1,.32,1.37,1.83,1.83,0,0,1-.64,1.45,2.24,2.24,0,0,1-1.53.56l-8.12.32a4.61,4.61,0,0,1-2.89-.92,7.85,7.85,0,0,1-2-2.29L276,468.71h-12.7v23.72a3,3,0,0,1-.68,2,2.58,2.58,0,0,1-2.13.84h-8.12q-3,0-3-3.14V455.68h19.46l-20.58-37.23a3.06,3.06,0,0,1-.4-1.21c0-.27.17-.48.52-.64a2.57,2.57,0,0,1,1.09-.24h31.6a24.47,24.47,0,0,1,10.13,2.09,25.59,25.59,0,0,1,8.12,5.71,26.27,26.27,0,0,1,5.39,8.4,26.71,26.71,0,0,1,1.93,10.09,25,25,0,0,1-1,7.2,28,28,0,0,1-2.93,6.59,27.07,27.07,0,0,1-4.58,5.63,26.07,26.07,0,0,1-6,4.22l-1.85.4Zm-31.6-62.47h-2.09l14.07,26.29a11.65,11.65,0,0,0,4-1.73,14.63,14.63,0,0,0,3.22-2.93,14.13,14.13,0,0,0,2.17-3.74,11.69,11.69,0,0,0,.8-4.3,13.35,13.35,0,0,0-1-5.11,14.22,14.22,0,0,0-2.77-4.34,13.08,13.08,0,0,0-4.14-3,11.94,11.94,0,0,0-5-1.09h-9.25Z" transform="translate(-129.12 -308.36)"/>
      <path class="cls-1" d="M619.16,491.54a3,3,0,0,1,.32,1.37,1.83,1.83,0,0,1-.64,1.45,2.24,2.24,0,0,1-1.53.56l-8.12.32a4.62,4.62,0,0,1-2.9-.92,7.89,7.89,0,0,1-2-2.29l-12.95-23.32h-12.7v23.72a3,3,0,0,1-.68,2,2.58,2.58,0,0,1-2.13.84h-8.12q-3,0-3-3.14V455.68h19.46l-20.58-37.23a3.06,3.06,0,0,1-.4-1.21c0-.27.17-.48.52-.64a2.56,2.56,0,0,1,1.08-.24h31.6a24.47,24.47,0,0,1,10.13,2.09,25.61,25.61,0,0,1,8.12,5.71,26.27,26.27,0,0,1,5.39,8.4A26.71,26.71,0,0,1,622,442.66a25.06,25.06,0,0,1-1,7.2,28,28,0,0,1-2.93,6.59,27.07,27.07,0,0,1-4.58,5.63,26.07,26.07,0,0,1-6,4.22l-1.85.4Zm-31.6-62.47h-2.09l14.07,26.29a11.61,11.61,0,0,0,4-1.73,14.58,14.58,0,0,0,3.22-2.93A14,14,0,0,0,609,447a11.7,11.7,0,0,0,.8-4.3,13.35,13.35,0,0,0-1-5.11,14.18,14.18,0,0,0-2.77-4.34,13.1,13.1,0,0,0-4.14-3,11.94,11.94,0,0,0-5-1.09h-9.25Z" transform="translate(-129.12 -308.36)"/>
      <path class="cls-1" d="M689,491.7q0,3.54-3.54,3.54h-6.67q-3.7,0-3.7-3.54v-72a3.33,3.33,0,0,1,1-2.57,3.55,3.55,0,0,1,2.49-1h6.59a3.67,3.67,0,0,1,2.77,1,3.47,3.47,0,0,1,1,2.49Z" transform="translate(-129.12 -308.36)"/>
      <path class="cls-1" d="M739.68,495.24q-3,0-3-2a7.89,7.89,0,0,1,.08-1.45,2.4,2.4,0,0,1,.16-.48l33-74.93a9.64,9.64,0,0,1,.88-1.41c.37-.51,1.23-.76,2.57-.76h.56a4.52,4.52,0,0,1,1.77.28,2.5,2.5,0,0,1,1,.68,2.36,2.36,0,0,1,.44.84,2.37,2.37,0,0,0,.28.68q4,9.33,7,15.92t5.35,11.74q2.41,5.15,4.54,9.61t4.5,9.61q2.37,5.15,5.23,11.74t6.71,16l-.08-.08.16.8c.05.27.11.51.16.72a2.26,2.26,0,0,1,.08.48q0,2-2.9,2Zm16.64-14.15h35.05l-17.85-41Z" transform="translate(-129.12 -308.36)"/>
      <path class="cls-1" d="M349.66,418.45a1.85,1.85,0,0,1,2.09-2.09h58.37q2,0,2,2.09V428a3.33,3.33,0,0,1-.48,1.53,1.62,1.62,0,0,1-1.53.88H387.93V449h15a2.54,2.54,0,0,1,1.81.64,2.65,2.65,0,0,1,.68,2v7.8a3,3,0,0,1-.68,2,2.21,2.21,0,0,1-1.81.84h-15v30.15q0,2.82-3,2.81h-8.52q-2.74,0-2.73-2.81V462.27H359.23a2.49,2.49,0,0,1-2.82-2.81v-7.8q0-2.65,2.82-2.65H373.7V430.43h-22q-2.09,0-2.09-2.41Z" transform="translate(-129.12 -308.36)"/>
    </g>
    <g>
      <path class="cls-1" d="M416.33,344.35a39.46,39.46,0,0,0-1-5.77,38.25,38.25,0,0,0-1.81-5.5A38.77,38.77,0,0,0,378.08,309H352a2.49,2.49,0,0,0-2.81,2.81v73.41q0,2.65,2.25,2.81h27.1a35.66,35.66,0,0,0,15-3.18,38.11,38.11,0,0,0,12.06-8.6,40,40,0,0,0,8-12.62,40.43,40.43,0,0,0,2.89-15.24Q416.52,346.32,416.33,344.35Zm-52.8,29.33V337.48l19.69,35.8h0q-1.11.19-2.26.29c-.78.06-1.58.11-2.39.11Zm37.31-15.2a23.33,23.33,0,0,1-4.82,8c-.24.25-.5.48-.74.72l-23.62-44.05h6.44a25.28,25.28,0,0,1,10,1.93,22.64,22.64,0,0,1,7.68,5.31,22.87,22.87,0,0,1,1.5,1.77,23.94,23.94,0,0,1,2.47,4q.53,1.08,1,2.23a27.58,27.58,0,0,1,1.77,9.93A29.53,29.53,0,0,1,400.84,358.48Z" transform="translate(-129.12 -308.36)"/>
      <path class="cls-1" d="M297.88,373.77a2.7,2.7,0,0,0-2-.84h-41V354.75h38.27a2.56,2.56,0,0,0,2-.8,2.89,2.89,0,0,0,.72-2v-8.44a2.94,2.94,0,0,0-.8-2.17,2.64,2.64,0,0,0-1.93-.8H254.91V322.59h39.24a2.63,2.63,0,0,0,1.93-.8,2.94,2.94,0,0,0,.8-2.17v-8.44a2.89,2.89,0,0,0-.72-2,2.57,2.57,0,0,0-2-.8H243.81a2.49,2.49,0,0,0-2.81,2.81v29.67h-4.83a3.47,3.47,0,0,0-2.49,1,3.67,3.67,0,0,0-1,2.77v6.59a3.55,3.55,0,0,0,1,2.49,3.33,3.33,0,0,0,2.57,1H241v29.67q0,2.74,2.25,2.81h52.66a2.7,2.7,0,0,0,2.05-.8,2.8,2.8,0,0,0,.76-2V376A3,3,0,0,0,297.88,373.77Z" transform="translate(-129.12 -308.36)"/>
      <path class="cls-1" d="M187.53,383.54a3,3,0,0,1,.32,1.37,1.83,1.83,0,0,1-.64,1.45,2.24,2.24,0,0,1-1.53.56l-8.12.32a4.61,4.61,0,0,1-2.89-.92,7.86,7.86,0,0,1-2-2.29L159.71,360.7H147v23.72a3,3,0,0,1-.68,2,2.58,2.58,0,0,1-2.13.84h-8.12q-3,0-3-3.14V347.68h19.46L132,310.45a3.06,3.06,0,0,1-.4-1.21c0-.27.17-.48.52-.64a2.57,2.57,0,0,1,1.09-.24h31.6a24.48,24.48,0,0,1,10.13,2.09,25.6,25.6,0,0,1,8.12,5.71,26.27,26.27,0,0,1,5.39,8.4,26.73,26.73,0,0,1,1.93,10.09,25,25,0,0,1-1,7.2,28,28,0,0,1-2.93,6.59,27.08,27.08,0,0,1-4.58,5.63,26.06,26.06,0,0,1-6,4.22l-1.85.4Zm-31.6-62.47h-2.09l14.07,26.29a11.65,11.65,0,0,0,4-1.73,14.63,14.63,0,0,0,3.22-2.93,14.1,14.1,0,0,0,2.17-3.74,11.69,11.69,0,0,0,.8-4.3,13.35,13.35,0,0,0-1-5.11,14.18,14.18,0,0,0-2.77-4.34,13.08,13.08,0,0,0-4.14-3,11.94,11.94,0,0,0-5-1.09h-9.25Z" transform="translate(-129.12 -308.36)"/>
      <circle class="cls-1" cx="342.73" cy="39.36" r="11.24"/>
    </g>
  </g>
</svg>
