<?xml version="1.0" encoding="utf-8"?>
<!-- Generator: Adobe Illustrator 21.1.0, SVG Export Plug-In . SVG Version: 6.00 Build 0)  -->
<svg version="1.1" xmlns="http://www.w3.org/2000/svg" xmlns:xlink="http://www.w3.org/1999/xlink" x="0px" y="0px"
	 viewBox="0 0 32 32" style="enable-background:new 0 0 32 32;" xml:space="preserve">
<style type="text/css">
	.st0{display:none;}
	.st1{display:inline;fill:#888888;}
	.st2{display:inline;fill:#B5B5B5;}
	.st3{fill:#231F20;}
	.st4{fill:#0DB9FC;}
</style>
<g id="Layer_1" class="st0">
	<path class="st1" d="M4.6,4.6c-2,2-2,5.1-2,11.4s0,9.4,2,11.4c2,2,5.1,2,11.4,2s9.4,0,11.4-2c2-2,2-5.1,2-11.4s0-9.4-2-11.4
		c-2-2-5.1-2-11.4-2S6.6,2.7,4.6,4.6z M22.7,16.9c0,5.7-4.7,7.1-7.1,7.1c-2.1,0-6.2-1.4-6.2-7.1c0-2.5,1.4-4,2.6-4.8
		c0.5-0.4,1.2-0.1,1.3,0.5c0.1,1.4,1.2,2.6,2,1.4c0.8-1.1,1.2-2.5,1.2-3.3c0-1.3,1.3-2.1,2.3-1.3C20.6,10.9,22.7,13.4,22.7,16.9z"/>
</g>
<g id="fondo" class="st0">
	<path class="st2" d="M20.8,29.3h-9.6c-4.7,0-8.5-3.8-8.5-8.5v-9.6c0-4.7,3.8-8.5,8.5-8.5h9.6c4.7,0,8.5,3.8,8.5,8.5v9.6
		C29.3,25.5,25.5,29.3,20.8,29.3z"/>
</g>
<g id="R">
	<g>
		<g>
			<path class="st3" d="M23.7,26.7c0.1,0.1,0.1,0.3,0.1,0.4c0,0.2-0.1,0.3-0.2,0.4c-0.1,0.1-0.3,0.2-0.5,0.2l-2.4,0.1
				c-0.3,0-0.6-0.1-0.9-0.3c-0.2-0.2-0.4-0.4-0.6-0.7l-3.9-7h-3.8v7.1c0,0.2-0.1,0.4-0.2,0.6c-0.1,0.2-0.3,0.3-0.6,0.3H8.3
				c-0.6,0-0.9-0.3-0.9-0.9V16h5.8L7.1,4.8C7,4.7,7,4.6,7,4.5C7,4.4,7,4.3,7.1,4.3c0.1,0,0.2-0.1,0.3-0.1h9.4c1.1,0,2.1,0.2,3,0.6
				c0.9,0.4,1.7,1,2.4,1.7c0.7,0.7,1.2,1.6,1.6,2.5c0.4,1,0.6,2,0.6,3c0,0.7-0.1,1.5-0.3,2.2c-0.2,0.7-0.5,1.4-0.9,2
				c-0.4,0.6-0.8,1.2-1.4,1.7c-0.5,0.5-1.1,0.9-1.8,1.3l-0.6,0.1L23.7,26.7z M14.3,8h-0.6l4.2,7.9c0.4-0.1,0.8-0.3,1.2-0.5
				c0.4-0.2,0.7-0.5,1-0.9c0.3-0.3,0.5-0.7,0.6-1.1c0.2-0.4,0.2-0.8,0.2-1.3c0-0.5-0.1-1-0.3-1.5c-0.2-0.5-0.5-0.9-0.8-1.3
				c-0.4-0.4-0.8-0.7-1.2-0.9C18.1,8.1,17.6,8,17,8L14.3,8L14.3,8z"/>
		</g>
	</g>
</g>
<g id="dot">
	<circle class="st4" cx="23.7" cy="16" r="3.4"/>
</g>
</svg>
